<?xml version="1.0" encoding="UTF-8" standalone="no"?><!DOCTYPE svg PUBLIC "-//W3C//DTD SVG 1.1//EN" "http://www.w3.org/Graphics/SVG/1.1/DTD/svg11.dtd"><svg width="100%" height="100%" viewBox="0 0 64 64" version="1.1" xmlns="http://www.w3.org/2000/svg" xmlns:xlink="http://www.w3.org/1999/xlink" xml:space="preserve" xmlns:serif="http://www.serif.com/" style="fill-rule:evenodd;clip-rule:evenodd;stroke-linejoin:round;stroke-miterlimit:1.41421;"><circle cx="32" cy="32" r="25" style="fill:#f9faf9;stroke:#022601;stroke-opacity:0.301961;stroke-width:1px;"/><path d="M47,28.797l-8.082,-8.049c-0.484,-0.483 -1.128,-0.748 -1.814,-0.748c-0.685,0 -1.328,0.265 -1.812,0.748l-2.917,2.904l-2.916,-2.904c-1,-0.996 -2.627,-0.996 -3.627,0l-8.082,8.049c-1.001,0.996 -1.001,2.617 0.004,3.617l4.226,4.049c-0.031,0.779 0.278,1.529 0.872,2.081c0.483,0.45 1.092,0.701 1.685,0.707c0.044,0.657 0.346,1.5 0.832,1.944c0.437,0.431 1.064,0.678 1.701,0.684c0.034,0.642 0.35,1.367 0.809,1.787c0.444,0.407 1.21,0.823 1.946,0.879c0.254,1.06 0.722,1.637 1.535,1.908c0.143,0.047 0.446,0.13 0.823,0.13c0.461,0 1.032,-0.124 1.559,-0.588c0.051,-0.053 0.119,-0.146 0.195,-0.264c0.142,0.052 0.323,0.095 0.545,0.095c0.383,0 0.878,-0.128 1.454,-0.563c0.675,-0.509 0.863,-1.148 0.85,-1.675c0.735,0.27 1.543,0.119 2.108,-0.448c0.708,-0.712 0.656,-1.571 0.492,-2.191c0.703,0.077 1.473,-0.235 1.858,-0.613c0.459,-0.451 0.729,-1.228 0.586,-1.912c0.62,0.046 1.472,-0.053 2.085,-0.775c0.544,-0.639 0.576,-1.406 0.111,-2.279l2.974,-2.961c1,-0.996 1,-2.616 0,-3.612Zm-23.707,9.277c-0.473,-0.44 -0.711,-1.04 -0.666,-1.656l2.071,-3.533c0.167,-0.161 0.498,-0.327 0.884,-0.321c0.393,0.003 0.747,0.176 1.052,0.514c0.785,0.871 0.29,1.813 0.259,1.869l-2.22,3.654c-0.471,0.036 -0.978,-0.153 -1.38,-0.527Zm2.522,2.655c-0.411,-0.375 -0.668,-1.227 -0.63,-1.727l2.205,-3.63c0.3,-0.101 1.28,-0.367 1.898,0.243c0.695,0.684 0.455,1.478 0.407,1.613l-2.476,4.002c-0.52,0.035 -1.045,-0.146 -1.404,-0.501Zm1.908,0.912l2.493,-4.028c0.202,-0.096 0.921,-0.339 1.745,0.535c0.634,0.673 0.34,1.596 0.288,1.744l-2.347,4.009c-0.505,-0.033 -1.156,-0.316 -1.586,-0.71c-0.386,-0.351 -0.647,-1.047 -0.593,-1.55Zm3.843,4.202c-0.617,-0.206 -0.94,-0.652 -1.137,-1.563l2.349,-4.013c0.562,-0.314 1.319,0.107 1.598,0.447c0.371,0.453 0.467,1.119 0.485,1.27c-0.115,0.839 -1.306,3.283 -1.563,3.544c-0.682,0.601 -1.498,0.393 -1.732,0.315Zm3.981,-1.094c-0.593,0.448 -1.03,0.466 -1.28,0.411c0.402,-0.755 0.885,-1.831 1.115,-2.584c0.154,0.137 0.363,0.32 0.672,0.575c0.086,0.227 0.299,0.991 -0.507,1.598Zm7.875,-7.516c-0.582,0.685 -1.516,0.584 -1.95,0.488l-5.274,-5.215c-0.126,-0.125 -0.33,-0.125 -0.457,0.001c-0.126,0.127 -0.125,0.33 0.002,0.456l5.31,5.252c0.324,0.475 0.129,1.279 -0.263,1.663c-0.352,0.346 -1.241,0.623 -1.747,0.295c-0.006,-0.005 -0.015,-0.006 -0.021,-0.01l-5.279,-5.387c-0.125,-0.128 -0.329,-0.129 -0.457,-0.006c-0.128,0.124 -0.13,0.328 -0.006,0.455l5.326,5.436c0.276,0.703 0.425,1.427 -0.172,2.026c-0.511,0.514 -1.296,0.522 -1.908,0.019c-0.352,-0.291 -0.574,-0.487 -0.738,-0.632c-0.118,-0.105 -0.208,-0.184 -0.297,-0.255c-0.044,-0.299 -0.186,-0.99 -0.614,-1.513c-0.381,-0.464 -1.153,-0.882 -1.888,-0.78c0.059,-0.502 0.008,-1.219 -0.557,-1.818c-0.726,-0.771 -1.473,-0.905 -2.017,-0.823c0.033,-0.467 -0.063,-1.129 -0.671,-1.728c-0.644,-0.634 -1.494,-0.627 -2.068,-0.523c0.107,-0.561 0.044,-1.315 -0.561,-1.986c-0.536,-0.595 -1.127,-0.724 -1.528,-0.728c-0.005,0 -0.011,0 -0.017,0c-0.631,0 -1.13,0.296 -1.368,0.55c-0.016,0.018 -0.03,0.037 -0.042,0.057l-1.926,3.286l-4.027,-3.859c-0.748,-0.745 -0.748,-1.956 0,-2.702l8.082,-8.049c0.748,-0.745 1.965,-0.745 2.712,0l2.917,2.904l-4.357,4.339c-0.037,0.034 -0.386,0.355 -0.749,0.767c-0.116,0.131 -0.239,0.423 0.248,0.891c1.004,0.967 3.927,2.167 6.564,-0.295c0.66,-0.612 1.655,-1.596 2.101,-2.04l7.643,7.738c0.006,0.013 0.015,0.026 0.023,0.041c0.28,0.473 0.536,1.091 0.031,1.685Zm0.208,-2.378l-7.673,-7.769c-0.061,-0.061 -0.143,-0.096 -0.229,-0.096c-0.084,0.01 -0.169,0.034 -0.23,0.095c-0.015,0.015 -1.456,1.456 -2.315,2.254c-1.482,1.384 -2.965,1.399 -3.947,1.169c-1.005,-0.235 -1.655,-0.752 -1.837,-0.983c0.314,-0.345 0.6,-0.606 0.603,-0.609c0.003,-0.001 0.003,-0.004 0.005,-0.006c0.002,-0.002 0.004,-0.002 0.007,-0.004l7.735,-7.703c0.361,-0.361 0.843,-0.559 1.355,-0.559c0.513,0 0.995,0.198 1.357,0.559l8.082,8.049c0.748,0.745 0.748,1.957 0,2.701l-2.913,2.902Z" style="fill:#022601;fill-rule:nonzero;stroke:#022601;stroke-width:0.24px;"/></svg>