<?xml version="1.0" encoding="UTF-8" standalone="no"?><!DOCTYPE svg PUBLIC "-//W3C//DTD SVG 1.1//EN" "http://www.w3.org/Graphics/SVG/1.1/DTD/svg11.dtd"><svg width="100%" height="100%" viewBox="0 0 128 128" version="1.1" xmlns="http://www.w3.org/2000/svg" xmlns:xlink="http://www.w3.org/1999/xlink" xml:space="preserve" xmlns:serif="http://www.serif.com/" style="fill-rule:evenodd;clip-rule:evenodd;stroke-linejoin:round;stroke-miterlimit:1.41421;"><path d="M64,18c-2.4,0 -4.699,0.999 -6.199,2.699c-1.5,1.7 -3.902,2.5 -6.102,2c-0.6,-0.1 -1.199,-0.199 -1.799,-0.199c-4.3,0 -7.9,3.2 -8.3,7.5c-0.3,2.3 -1.699,4.299 -3.799,5.199c-2.2,1 -3.902,2.802 -4.602,5.102c-0.8,2.3 -0.499,4.699 0.701,6.799c1.1,2 1.1,4.4 0,6.4c-1.2,2.1 -1.401,4.501 -0.701,6.801c0.8,2.3 2.402,4.099 4.602,5.099c2.1,0.9 3.599,2.9 3.799,5.2c0.16,1.729 0.845,3.275 1.879,4.511l-4.579,19.289c-0.1,0.4 -0.001,0.8 0.299,1c0.3,0.2 0.7,0.3 1,0.2l11.102,-3.5l8.398,8.099c0.2,0.2 0.401,0.301 0.701,0.301c0.1,0 0.2,0 0.1,-0.1c0.4,-0.1 0.599,-0.401 0.699,-0.701l2.201,-9.367l4.1,18.969c0.1,0.3 0.399,0.599 0.699,0.699l0.301,0c0.3,0 0.499,-0.101 0.699,-0.301l8.401,-8.099l11.099,3.5c0.4,0.1 0.7,0.1 1,-0.2c0.3,-0.3 0.401,-0.7 0.301,-1l-6.16,-27.963c1.415,-1.328 2.366,-3.152 2.56,-5.238c0.3,-2.3 1.699,-4.299 3.799,-5.199c2.2,-1 3.902,-2.8 4.602,-5.1c0.8,-2.3 0.499,-4.7 -0.701,-6.8c-1.1,-2 -1.1,-4.401 0,-6.401c1.2,-2.1 1.401,-4.499 0.701,-6.799c-0.8,-2.3 -2.402,-4.099 -4.602,-5.099c-2.1,-0.9 -3.599,-2.901 -3.799,-5.201c-0.4,-4.3 -4,-7.5 -8.3,-7.5c-0.6,0 -1.199,0.101 -1.799,0.201c-2.2,0.5 -4.602,-0.3 -6.102,-2c-1.5,-1.8 -3.799,-2.801 -6.199,-2.801Zm0,2c1.8,0 3.5,0.8 4.6,2c2,2.2 5.1,3.2 8,2.6c0.5,-0.1 0.9,-0.1 1.4,-0.1c3.2,0 6.001,2.399 6.301,5.699c0.3,3 2.198,5.601 4.898,6.801c1.7,0.8 2.9,2.2 3.5,3.9c0.5,1.7 0.301,3.6 -0.599,5.2c-1.5,2.6 -1.5,5.8 0,8.4c1,1.6 1.199,3.499 0.599,5.199c-0.6,1.8 -1.8,3.201 -3.5,3.901c-2.7,1.2 -4.598,3.8 -4.898,6.8c-0.3,3.2 -3.001,5.7 -6.301,5.7c-0.5,0 -1,0 -1.4,-0.1c-2.9,-0.6 -6,0.4 -8,2.6c-1.2,1.3 -2.9,2.099 -4.7,2.099c-1.8,0 -3.501,-0.799 -4.701,-2.099c-1.5,-1.8 -3.799,-2.799 -6.199,-2.799c-0.6,0 -1.199,0.099 -1.699,0.299c-0.5,0.1 -0.901,0.099 -1.401,0.099c-1.744,0 -3.366,-0.715 -4.533,-1.898c-0.066,-0.094 -0.139,-0.182 -0.23,-0.248c-0.846,-0.955 -1.412,-2.174 -1.537,-3.553c-0.3,-3 -2.201,-5.601 -4.901,-6.801c-1.7,-0.8 -2.9,-2.198 -3.5,-3.898c-0.5,-1.7 -0.298,-3.601 0.602,-5.201c1.5,-2.6 1.5,-5.801 0,-8.401c-1,-1.6 -1.202,-3.499 -0.602,-5.199c0.6,-1.8 1.8,-3.2 3.5,-3.9c2.7,-1.2 4.601,-3.799 4.901,-6.799c0.3,-3.2 3,-5.701 6.3,-5.701c0.5,0 1.001,-0.001 1.401,0.099c0.6,0.1 1.199,0.201 1.799,0.201c2.3,0 4.601,-1 6.201,-2.8c1.2,-1.3 2.899,-2.1 4.699,-2.1Zm-0.1,7.9c-12.4,0 -22.5,10.1 -22.5,22.5c0,12.4 10.1,22.5 22.5,22.5c12.4,0 22.5,-10.1 22.5,-22.5c0,-12.4 -10.1,-22.5 -22.5,-22.5Zm0,1.901c11.3,0 20.5,9.2 20.5,20.5c0,11.3 -9.2,20.5 -20.5,20.5c-11.3,0 -20.5,-9.2 -20.5,-20.5c0,-11.3 9.2,-20.5 20.5,-20.5Zm-18.763,46.82c1.356,0.933 2.998,1.479 4.763,1.479c0.6,0 1.199,-0.1 1.799,-0.2c2.2,-0.5 4.602,0.3 6.102,2c1.004,1.205 2.368,2.041 3.879,2.469l0.763,3.535c-0.011,0.034 -0.036,0.062 -0.043,0.096l-2.701,11.5l-7.5,-7.301c-0.3,-0.2 -0.7,-0.299 -1,-0.199l-10,3.1l3.938,-16.479Zm36.896,0.604l5.567,25.474l-10,-3.199c-0.4,-0.1 -0.7,-0.101 -1,0.199l-7.5,7.301l-5.264,-24.309c0.055,0.001 0.109,0.008 0.164,0.008c2.4,0 4.699,-0.999 6.199,-2.699c1.5,-1.7 3.902,-2.5 6.102,-2c0.6,0.1 1.199,0.199 1.799,0.199c1.418,0 2.757,-0.353 3.933,-0.974Z" style="fill:#fff;fill-rule:nonzero;"/></svg>