<?xml version="1.0" encoding="UTF-8" standalone="no"?><!DOCTYPE svg PUBLIC "-//W3C//DTD SVG 1.1//EN" "http://www.w3.org/Graphics/SVG/1.1/DTD/svg11.dtd"><svg width="100%" height="100%" viewBox="0 0 64 64" version="1.1" xmlns="http://www.w3.org/2000/svg" xmlns:xlink="http://www.w3.org/1999/xlink" xml:space="preserve" xmlns:serif="http://www.serif.com/" style="fill-rule:evenodd;clip-rule:evenodd;stroke-linejoin:round;stroke-miterlimit:1.41421;"><g><circle cx="32" cy="32" r="25" style="fill:#f1ece9;stroke:#022601;stroke-width:1px;"/><path d="M29.741,22.148c0.286,0 0.518,-0.232 0.518,-0.518l0,-2.074c0,-0.287 -0.232,-0.519 -0.518,-0.519c-0.286,0 -0.519,0.232 -0.519,0.519l0,2.074c0,0.286 0.233,0.518 0.519,0.518Z" style="fill:#022601;fill-rule:nonzero;"/><path d="M31.815,22.148c0.286,0 0.518,-0.232 0.518,-0.518l0,-3.111c0,-0.287 -0.232,-0.519 -0.518,-0.519c-0.286,0 -0.519,0.232 -0.519,0.519l0,3.111c0,0.286 0.233,0.518 0.519,0.518Z" style="fill:#022601;fill-rule:nonzero;"/><path d="M33.889,22.148c0.286,0 0.518,-0.232 0.518,-0.518l0,-2.074c0,-0.287 -0.232,-0.519 -0.518,-0.519c-0.286,0 -0.519,0.232 -0.519,0.519l0,2.074c0,0.286 0.233,0.518 0.519,0.518Z" style="fill:#022601;fill-rule:nonzero;"/><path d="M43.222,24.222l-19.703,0c-0.287,0 -0.519,0.233 -0.519,0.519l0,13.481c0,4.289 3.489,7.778 7.778,7.778l2.074,0c4.289,0 7.778,-3.489 7.778,-7.778l0,-1.555l2.592,0c2.001,0 3.63,-1.629 3.63,-3.63l0,-5.185c0,-2.002 -1.629,-3.63 -3.63,-3.63Zm-11.407,5.4l1.555,1.556l0,2.378l-3.111,0l0,-2.378l1.556,-1.556Zm7.778,8.6c0,3.717 -3.024,6.741 -6.741,6.741l-2.074,0c-3.717,0 -6.741,-3.024 -6.741,-6.741l0,-12.963l7.259,0l0,3.415l-1.922,1.923c-0.097,0.097 -0.152,0.229 -0.152,0.366l0,3.111c0,0.287 0.233,0.519 0.519,0.519l4.148,0c0.286,0 0.518,-0.232 0.518,-0.519l0,-3.111c0,-0.137 -0.054,-0.27 -0.152,-0.367l-1.922,-1.922l0,-3.415l7.26,0l0,12.963Zm6.222,-5.185c0,1.43 -1.163,2.593 -2.593,2.593l-2.592,0l0,-10.371l2.592,0c1.43,0 2.593,1.163 2.593,2.593l0,5.185Z" style="fill:#022601;fill-rule:nonzero;"/></g></svg>