<?xml version="1.0" encoding="UTF-8" standalone="no"?><!DOCTYPE svg PUBLIC "-//W3C//DTD SVG 1.1//EN" "http://www.w3.org/Graphics/SVG/1.1/DTD/svg11.dtd"><svg width="100%" height="100%" viewBox="0 0 64 64" version="1.1" xmlns="http://www.w3.org/2000/svg" xmlns:xlink="http://www.w3.org/1999/xlink" xml:space="preserve" xmlns:serif="http://www.serif.com/" style="fill-rule:evenodd;clip-rule:evenodd;stroke-linejoin:round;stroke-miterlimit:1.41421;"><g><circle cx="32" cy="32" r="25" style="fill:#f9faf9;stroke:#022601;stroke-opacity:0.301961;stroke-width:1px;"/><path d="M18.231,27.995c-0.128,0 -0.231,-0.103 -0.231,-0.23l0,-4.151c0,-0.127 0.103,-0.231 0.231,-0.231c0.126,0 0.23,0.104 0.23,0.231l0,4.151c0,0.127 -0.104,0.23 -0.23,0.23Z" style="fill:#022601;fill-opacity:0.301961;fill-rule:nonzero;stroke:#022601;stroke-opacity:0.301961;stroke-width:0.33px;"/><path d="M19.153,27.534c-0.128,0 -0.231,-0.104 -0.231,-0.23l0,-3.69c0,-0.127 0.103,-0.231 0.231,-0.231c0.127,0 0.23,0.104 0.23,0.231l0,3.69c0,0.126 -0.103,0.23 -0.23,0.23Z" style="fill:#022601;fill-opacity:0.301961;fill-rule:nonzero;stroke:#022601;stroke-opacity:0.301961;stroke-width:0.33px;"/><path d="M20.075,27.534c-0.128,0 -0.231,-0.104 -0.231,-0.23l0,-3.69c0,-0.127 0.103,-0.231 0.231,-0.231c0.128,0 0.231,0.104 0.231,0.231l0,3.69c0,0.126 -0.103,0.23 -0.231,0.23Z" style="fill:#022601;fill-opacity:0.301961;fill-rule:nonzero;stroke:#022601;stroke-opacity:0.301961;stroke-width:0.33px;"/><path d="M20.997,27.995c-0.128,0 -0.23,-0.103 -0.23,-0.23l0,-4.151c0,-0.127 0.102,-0.231 0.23,-0.231c0.128,0 0.231,0.104 0.231,0.231l0,4.151c0,0.127 -0.103,0.23 -0.231,0.23Z" style="fill:#022601;fill-opacity:0.301961;fill-rule:nonzero;stroke:#022601;stroke-opacity:0.301961;stroke-width:0.33px;"/><path d="M19.614,29.379c-0.89,0 -1.614,-0.725 -1.614,-1.614c0,-0.128 0.103,-0.231 0.231,-0.231c0.126,0 0.23,0.103 0.23,0.231c0,0.636 0.517,1.152 1.153,1.152c0.636,0 1.153,-0.517 1.153,-1.152c0,-0.128 0.102,-0.231 0.23,-0.231c0.128,0 0.231,0.103 0.231,0.231c0,0.889 -0.725,1.614 -1.614,1.614Z" style="fill:#022601;fill-opacity:0.301961;fill-rule:nonzero;stroke:#022601;stroke-opacity:0.301961;stroke-width:0.33px;"/><path d="M19.153,40.447c-0.128,0 -0.231,-0.103 -0.231,-0.231l0,-10.226c0,-0.128 0.103,-0.231 0.231,-0.231c0.127,0 0.23,0.103 0.23,0.231l0,10.226c0,0.128 -0.103,0.231 -0.23,0.231Z" style="fill:#022601;fill-opacity:0.301961;fill-rule:nonzero;stroke:#022601;stroke-opacity:0.301961;stroke-width:0.33px;"/><path d="M45.439,40.447c-0.128,0 -0.231,-0.103 -0.231,-0.231l0,-16.602c0,-0.127 0.103,-0.231 0.231,-0.231c0.128,0 0.231,0.104 0.231,0.231l0,16.602c0,0.128 -0.103,0.231 -0.231,0.231Z" style="fill:#022601;fill-opacity:0.301961;fill-rule:nonzero;stroke:#022601;stroke-opacity:0.301961;stroke-width:0.33px;"/><path d="M20.075,40.447c-0.128,0 -0.231,-0.103 -0.231,-0.231l0,-10.226c0,-0.128 0.103,-0.231 0.231,-0.231c0.128,0 0.231,0.103 0.231,0.231l0,10.226c0,0.128 -0.103,0.231 -0.231,0.231Z" style="fill:#022601;fill-opacity:0.301961;fill-rule:nonzero;stroke:#022601;stroke-opacity:0.301961;stroke-width:0.33px;"/><path d="M19.614,40.908c-0.382,0 -0.692,-0.31 -0.692,-0.692c0,-0.128 0.103,-0.23 0.231,-0.23c0.127,0 0.23,0.102 0.23,0.23c0,0.127 0.103,0.231 0.231,0.231c0.127,0 0.23,-0.104 0.23,-0.231c0,-0.128 0.103,-0.23 0.231,-0.23c0.128,0 0.231,0.102 0.231,0.23c0,0.382 -0.311,0.692 -0.692,0.692Z" style="fill:#022601;fill-opacity:0.301961;fill-rule:nonzero;stroke:#022601;stroke-opacity:0.301961;stroke-width:0.33px;"/><path d="M45.9,40.908c-0.381,0 -0.692,-0.31 -0.692,-0.692c0,-0.128 0.103,-0.23 0.231,-0.23c0.128,0 0.231,0.102 0.231,0.23c0,0.127 0.103,0.231 0.23,0.231c0.127,0 0.231,-0.104 0.231,-0.231c0,-0.128 0.103,-0.23 0.23,-0.23c0.128,0 0.231,0.102 0.231,0.23c0,0.382 -0.31,0.692 -0.692,0.692Z" style="fill:#022601;fill-opacity:0.301961;fill-rule:nonzero;stroke:#022601;stroke-opacity:0.301961;stroke-width:0.33px;"/><path d="M46.361,40.448c-0.127,0 -0.23,-0.104 -0.23,-0.231l0,-7.84c0,-0.128 0.103,-0.231 0.23,-0.231c0.128,0 0.231,0.103 0.231,0.231l0,7.839c0,0.128 -0.103,0.232 -0.231,0.232Z" style="fill:#022601;fill-opacity:0.301961;fill-rule:nonzero;stroke:#022601;stroke-opacity:0.301961;stroke-width:0.33px;"/><path d="M47.283,26.151c-0.127,0 -0.23,-0.104 -0.23,-0.231c0,-1.638 -1.603,-2.065 -1.671,-2.082c-0.123,-0.032 -0.198,-0.157 -0.167,-0.28c0.032,-0.124 0.157,-0.199 0.28,-0.168c0.02,0.005 2.019,0.528 2.019,2.53c0,0.127 -0.103,0.231 -0.231,0.231Z" style="fill:#022601;fill-opacity:0.301961;fill-rule:nonzero;stroke:#022601;stroke-opacity:0.301961;stroke-width:0.33px;"/><path d="M47.283,31.685c-0.127,0 -0.23,-0.104 -0.23,-0.232l0,-5.533c0,-0.127 0.103,-0.23 0.23,-0.23c0.128,0 0.231,0.103 0.231,0.23l0,5.533c0,0.128 -0.103,0.232 -0.231,0.232Z" style="fill:#022601;fill-opacity:0.301961;fill-rule:nonzero;stroke:#022601;stroke-opacity:0.301961;stroke-width:0.33px;"/><path d="M47.283,31.685l-0.922,0c-0.127,0 -0.23,-0.104 -0.23,-0.232c0,-0.126 0.103,-0.23 0.23,-0.23l0.922,0c0.128,0 0.231,0.104 0.231,0.23c0,0.128 -0.103,0.232 -0.231,0.232Z" style="fill:#022601;fill-opacity:0.301961;fill-rule:nonzero;stroke:#022601;stroke-opacity:0.301961;stroke-width:0.33px;"/><path d="M32.658,42.291c-5.594,0 -10.145,-4.551 -10.145,-10.145c0,-5.595 4.551,-10.146 10.145,-10.146c5.595,0 10.146,4.551 10.146,10.146c0,5.594 -4.551,10.145 -10.146,10.145Zm0,-19.83c-5.339,0 -9.684,4.345 -9.684,9.685c0,5.34 4.345,9.684 9.684,9.684c5.341,0 9.685,-4.344 9.685,-9.684c0,-5.34 -4.344,-9.685 -9.685,-9.685Z" style="fill:#022601;fill-opacity:0.301961;fill-rule:nonzero;stroke:#022601;stroke-opacity:0.301961;stroke-width:0.33px;"/></g></svg>