<?xml version="1.0" encoding="UTF-8" standalone="no"?><!DOCTYPE svg PUBLIC "-//W3C//DTD SVG 1.1//EN" "http://www.w3.org/Graphics/SVG/1.1/DTD/svg11.dtd"><svg width="100%" height="100%" viewBox="0 0 64 64" version="1.1" xmlns="http://www.w3.org/2000/svg" xmlns:xlink="http://www.w3.org/1999/xlink" xml:space="preserve" xmlns:serif="http://www.serif.com/" style="fill-rule:evenodd;clip-rule:evenodd;stroke-linejoin:round;stroke-miterlimit:1.41421;"><g><circle cx="32" cy="32" r="25" style="fill:#333a42;"/><path d="M15.755,27.311c-0.149,0 -0.269,-0.12 -0.269,-0.269l0,-4.843c0,-0.148 0.12,-0.269 0.269,-0.269c0.148,0 0.269,0.121 0.269,0.269l0,4.843c0,0.149 -0.121,0.269 -0.269,0.269Z" style="fill:#fff;fill-rule:nonzero;"/><path d="M16.831,26.773c-0.149,0 -0.269,-0.121 -0.269,-0.269l0,-4.305c0,-0.148 0.12,-0.269 0.269,-0.269c0.149,0 0.269,0.121 0.269,0.269l0,4.305c0,0.148 -0.12,0.269 -0.269,0.269Z" style="fill:#fff;fill-rule:nonzero;"/><path d="M17.907,26.773c-0.149,0 -0.269,-0.121 -0.269,-0.269l0,-4.305c0,-0.148 0.12,-0.269 0.269,-0.269c0.149,0 0.269,0.121 0.269,0.269l0,4.305c0,0.148 -0.12,0.269 -0.269,0.269Z" style="fill:#fff;fill-rule:nonzero;"/><path d="M18.983,27.311c-0.149,0 -0.269,-0.12 -0.269,-0.269l0,-4.843c0,-0.148 0.12,-0.269 0.269,-0.269c0.149,0 0.269,0.121 0.269,0.269l0,4.843c0,0.149 -0.12,0.269 -0.269,0.269Z" style="fill:#fff;fill-rule:nonzero;"/><path d="M17.369,28.925c-1.038,0 -1.883,-0.845 -1.883,-1.883c0,-0.149 0.12,-0.269 0.269,-0.269c0.148,0 0.269,0.12 0.269,0.269c0,0.742 0.603,1.345 1.345,1.345c0.742,0 1.345,-0.604 1.345,-1.345c0,-0.149 0.12,-0.269 0.269,-0.269c0.149,0 0.269,0.12 0.269,0.269c0,1.038 -0.845,1.883 -1.883,1.883Z" style="fill:#fff;fill-rule:nonzero;"/><path d="M16.831,41.839c-0.149,0 -0.269,-0.12 -0.269,-0.269l0,-11.932c0,-0.149 0.12,-0.269 0.269,-0.269c0.149,0 0.269,0.12 0.269,0.269l0,11.932c0,0.149 -0.12,0.269 -0.269,0.269Z" style="fill:#fff;fill-rule:nonzero;"/><path d="M47.501,41.839c-0.149,0 -0.269,-0.12 -0.269,-0.269l0,-19.371c0,-0.148 0.12,-0.269 0.269,-0.269c0.149,0 0.269,0.121 0.269,0.269l0,19.371c0,0.149 -0.12,0.269 -0.269,0.269Z" style="fill:#fff;fill-rule:nonzero;"/><path d="M17.907,41.839c-0.149,0 -0.269,-0.12 -0.269,-0.269l0,-11.932c0,-0.149 0.12,-0.269 0.269,-0.269c0.149,0 0.269,0.12 0.269,0.269l0,11.932c0,0.149 -0.12,0.269 -0.269,0.269Z" style="fill:#fff;fill-rule:nonzero;"/><path d="M17.369,42.377c-0.445,0 -0.807,-0.362 -0.807,-0.807c0,-0.149 0.12,-0.269 0.269,-0.269c0.149,0 0.269,0.12 0.269,0.269c0,0.148 0.12,0.269 0.269,0.269c0.148,0 0.269,-0.121 0.269,-0.269c0,-0.149 0.12,-0.269 0.269,-0.269c0.149,0 0.269,0.12 0.269,0.269c0,0.445 -0.362,0.807 -0.807,0.807Z" style="fill:#fff;fill-rule:nonzero;"/><path d="M48.039,42.377c-0.445,0 -0.807,-0.362 -0.807,-0.807c0,-0.149 0.12,-0.269 0.269,-0.269c0.149,0 0.269,0.12 0.269,0.269c0,0.148 0.121,0.269 0.269,0.269c0.148,0 0.269,-0.121 0.269,-0.269c0,-0.149 0.12,-0.269 0.269,-0.269c0.149,0 0.269,0.12 0.269,0.269c0,0.445 -0.362,0.807 -0.807,0.807Z" style="fill:#fff;fill-rule:nonzero;"/><path d="M48.577,41.84c-0.149,0 -0.269,-0.121 -0.269,-0.269l0,-9.148c0,-0.149 0.12,-0.269 0.269,-0.269c0.149,0 0.269,0.12 0.269,0.269l0,9.147c0,0.149 -0.12,0.27 -0.269,0.27Z" style="fill:#fff;fill-rule:nonzero;"/><path d="M49.653,25.159c-0.149,0 -0.269,-0.121 -0.269,-0.269c0,-1.911 -1.87,-2.41 -1.949,-2.43c-0.144,-0.037 -0.231,-0.183 -0.195,-0.326c0.037,-0.145 0.183,-0.232 0.326,-0.196c0.024,0.006 2.356,0.616 2.356,2.952c0,0.148 -0.12,0.269 -0.269,0.269Z" style="fill:#fff;fill-rule:nonzero;"/><path d="M49.653,31.616c-0.149,0 -0.269,-0.121 -0.269,-0.27l0,-6.456c0,-0.149 0.12,-0.269 0.269,-0.269c0.149,0 0.269,0.12 0.269,0.269l0,6.456c0,0.149 -0.12,0.27 -0.269,0.27Z" style="fill:#fff;fill-rule:nonzero;"/><path d="M49.653,31.616l-1.076,0c-0.149,0 -0.269,-0.121 -0.269,-0.27c0,-0.148 0.12,-0.269 0.269,-0.269l1.076,0c0.149,0 0.269,0.121 0.269,0.269c0,0.149 -0.12,0.27 -0.269,0.27Z" style="fill:#fff;fill-rule:nonzero;"/><path d="M32.589,43.991c-6.527,0 -11.837,-5.31 -11.837,-11.837c0,-6.528 5.31,-11.838 11.837,-11.838c6.527,0 11.838,5.31 11.838,11.838c0,6.527 -5.311,11.837 -11.838,11.837Zm0,-23.137c-6.23,0 -11.299,5.069 -11.299,11.3c0,6.23 5.069,11.299 11.299,11.299c6.231,0 11.3,-5.069 11.3,-11.299c0,-6.231 -5.069,-11.3 -11.3,-11.3Z" style="fill:#fff;fill-rule:nonzero;"/><path d="M32.589,41.301c-5.044,0 -9.147,-4.103 -9.147,-9.147c0,-5.044 4.103,-9.148 9.147,-9.148c5.044,0 9.147,4.104 9.147,9.148c0,5.044 -4.103,9.147 -9.147,9.147Zm0,-17.757c-4.747,0 -8.609,3.863 -8.609,8.61c0,4.746 3.862,8.608 8.609,8.608c4.747,0 8.609,-3.862 8.609,-8.608c0,-4.747 -3.862,-8.61 -8.609,-8.61Z" style="fill:#fff;fill-rule:nonzero;"/></g></svg>