<?xml version="1.0" encoding="UTF-8" standalone="no"?><!DOCTYPE svg PUBLIC "-//W3C//DTD SVG 1.1//EN" "http://www.w3.org/Graphics/SVG/1.1/DTD/svg11.dtd"><svg width="100%" height="100%" viewBox="0 0 512 512" version="1.1" xmlns="http://www.w3.org/2000/svg" xmlns:xlink="http://www.w3.org/1999/xlink" xml:space="preserve" xmlns:serif="http://www.serif.com/" style="fill-rule:evenodd;clip-rule:evenodd;stroke-linejoin:round;stroke-miterlimit:1.41421;"><path d="M426.8,64l-341.6,0c-11.7,0 -21.2,9.5 -21.2,21.2l0,341.6c0,11.7 9.5,21.2 21.2,21.2l170.8,0l0,-152l-45.9,0l0,-56l45.9,0l0,-41.4c0,-49.6 34.4,-76.6 78.7,-76.6c21.2,0 44,1.6 49.3,2.3l0,51.8l-35.3,0c-24.1,0 -28.7,11.4 -28.7,28.2l0,35.7l57.4,0l-7.5,56l-49.9,0l0,152l106.8,0c11.7,0 21.2,-9.5 21.2,-21.2l0,-341.6c0,-11.7 -9.5,-21.2 -21.2,-21.2Z" style="fill:#ddd;fill-rule:nonzero;"/></svg>