<?xml version="1.0" encoding="UTF-8" standalone="no"?><!DOCTYPE svg PUBLIC "-//W3C//DTD SVG 1.1//EN" "http://www.w3.org/Graphics/SVG/1.1/DTD/svg11.dtd"><svg width="100%" height="100%" viewBox="0 0 100 100" version="1.1" xmlns="http://www.w3.org/2000/svg" xmlns:xlink="http://www.w3.org/1999/xlink" xml:space="preserve" xmlns:serif="http://www.serif.com/" style="fill-rule:evenodd;clip-rule:evenodd;stroke-linejoin:round;stroke-miterlimit:1.41421;"><g><path d="M48.87,42.353c0,-11.276 -9.14,-20.417 -20.417,-20.417c-11.277,0 -19.462,8.826 -20.417,20.062c-1.458,17.145 11.567,31.5 27.38,36.067c-5.39,-3.259 -9.15,-8.927 -9.777,-15.519c0.923,0.131 1.857,0.224 2.814,0.224c11.277,0 20.417,-9.14 20.417,-20.417Z" style="fill:none;stroke:#022601;stroke-width:1.93px;"/><path d="M92,42.353c0,-11.276 -9.14,-20.417 -20.418,-20.417c-11.276,0 -19.462,8.826 -20.418,20.062c-1.458,17.145 11.567,31.5 27.381,36.067c-5.39,-3.259 -9.149,-8.927 -9.777,-15.519c0.923,0.131 1.858,0.224 2.814,0.224c11.278,0 20.418,-9.14 20.418,-20.417Z" style="fill:none;stroke:#022601;stroke-width:1.93px;"/></g></svg>