<?xml version="1.0" encoding="UTF-8" standalone="no"?><!DOCTYPE svg PUBLIC "-//W3C//DTD SVG 1.1//EN" "http://www.w3.org/Graphics/SVG/1.1/DTD/svg11.dtd"><svg width="100%" height="100%" viewBox="0 0 512 512" version="1.1" xmlns="http://www.w3.org/2000/svg" xmlns:xlink="http://www.w3.org/1999/xlink" xml:space="preserve" xmlns:serif="http://www.serif.com/" style="fill-rule:evenodd;clip-rule:evenodd;stroke-linejoin:round;stroke-miterlimit:1.41421;"><path d="M336,96c21.2,0 41.3,8.4 56.5,23.5c15.2,15.1 23.5,35.3 23.5,56.5l0,160c0,21.2 -8.4,41.3 -23.5,56.5c-15.1,15.2 -35.3,23.5 -56.5,23.5l-160,0c-21.2,0 -41.3,-8.4 -56.5,-23.5c-15.2,-15.1 -23.5,-35.3 -23.5,-56.5l0,-160c0,-21.2 8.4,-41.3 23.5,-56.5c15.1,-15.2 35.3,-23.5 56.5,-23.5l160,0m0,-32l-160,0c-61.6,0 -112,50.4 -112,112l0,160c0,61.6 50.4,112 112,112l160,0c61.6,0 112,-50.4 112,-112l0,-160c0,-61.6 -50.4,-112 -112,-112Z" style="fill:#ddd;fill-rule:nonzero;"/><path d="M360,176c-13.3,0 -24,-10.7 -24,-24c0,-13.3 10.7,-24 24,-24c13.2,0 24,10.7 24,24c0,13.3 -10.8,24 -24,24Zm-104,16c35.3,0 64,28.7 64,64c0,35.3 -28.7,64 -64,64c-35.3,0 -64,-28.7 -64,-64c0,-35.3 28.7,-64 64,-64m0,-32c-53,0 -96,43 -96,96c0,53 43,96 96,96c53,0 96,-43 96,-96c0,-53 -43,-96 -96,-96Z" style="fill:#ddd;fill-rule:nonzero;"/></svg>