<svg fill="#daa162" xmlns="http://www.w3.org/2000/svg" xmlns:xlink="http://www.w3.org/1999/xlink" viewBox="0 0 24 24" version="1.1" x="0px" y="0px"><title>icon-time</title><desc>Created with love by @immaulana.</desc><g stroke="none" stroke-width="1" fill="none" fill-rule="evenodd"><path d="M12,22.4958129 C17.8475903,22.4958129 22.5,17.8442886 22.5,11.9979065 C22.5,6.22483285 17.8077836,1.5 12,1.5 C6.26581179,1.5 1.5,6.26490475 1.5,11.9979065 C1.5,17.7709801 6.19221643,22.4958129 12,22.4958129 Z M12,23.4958129 C5.63837508,23.4958129 0.5,18.3217201 0.5,11.9979065 C0.5,5.71257739 5.71356965,0.5 12,0.5 C18.3616249,0.5 23.5,5.67409282 23.5,11.9979065 C23.5,18.396616 18.3998324,23.4958129 12,23.4958129 Z M16.8762627,15.7038212 C17.1001082,15.865524 17.1504848,16.1780727 16.988782,16.4019182 C16.8270792,16.6257637 16.5145305,16.6761403 16.290685,16.5144375 L11.7072111,13.2034006 C11.5770804,13.109396 11.5,12.9586255 11.5,12.7980924 L11.5,5.09303226 C11.5,4.81688989 11.7238576,4.59303226 12,4.59303226 C12.2761424,4.59303226 12.5,4.81688989 12.5,5.09303226 L12.5,12.5424707 L16.8762627,15.7038212 Z" fill="#daa162" fill-rule="nonzero"></path></g></svg>