<?xml version="1.0" encoding="UTF-8" standalone="no"?><!DOCTYPE svg PUBLIC "-//W3C//DTD SVG 1.1//EN" "http://www.w3.org/Graphics/SVG/1.1/DTD/svg11.dtd"><svg width="100%" height="100%" viewBox="0 0 512 512" version="1.1" xmlns="http://www.w3.org/2000/svg" xmlns:xlink="http://www.w3.org/1999/xlink" xml:space="preserve" xmlns:serif="http://www.serif.com/" style="fill-rule:evenodd;clip-rule:evenodd;stroke-linejoin:round;stroke-miterlimit:1.41421;"><path d="M321.2,396.3c-11.8,0 -22.4,-2.8 -31.5,-8.3c-6.9,-4.1 -11.5,-9.6 -14,-16.4c-2.6,-6.9 -3.6,-22.3 -3.6,-46.4l0,-101.2l96,0l0,-64l-96,0l0,-112l-61.9,0c-2.7,21.5 -7.5,44.7 -14.5,58.6c-7,13.9 -14,25.8 -25.6,35.7c-11.6,9.9 -25.6,17.9 -41.9,23.3l0,58.4l48,0l0,140.4c0,19 2,33.5 5.9,43.5c4,10 11.1,19.5 21.4,28.4c10.3,8.9 22.8,15.7 37.3,20.5c14.6,4.8 31.4,7.2 50.4,7.2c16.7,0 30.3,-1.7 44.7,-5.1c14.4,-3.4 30.5,-9.3 48.2,-17.6l0,-65.6c-20.9,13.7 -41.8,20.6 -62.9,20.6Z" style="fill:#ddd;fill-rule:nonzero;"/></svg>