<?xml version="1.0" encoding="UTF-8" standalone="no"?><!DOCTYPE svg PUBLIC "-//W3C//DTD SVG 1.1//EN" "http://www.w3.org/Graphics/SVG/1.1/DTD/svg11.dtd"><svg width="100%" height="100%" viewBox="0 0 512 512" version="1.1" xmlns="http://www.w3.org/2000/svg" xmlns:xlink="http://www.w3.org/1999/xlink" xml:space="preserve" xmlns:serif="http://www.serif.com/" style="fill-rule:evenodd;clip-rule:evenodd;stroke-linejoin:round;stroke-miterlimit:1.41421;"><path d="M417.2,64l-320.4,0c-17.5,0 -32.8,12.6 -32.8,29.9l0,321.1c0,17.4 15.3,32.9 32.8,32.9l320.3,0c17.6,0 30.8,-15.6 30.8,-32.9l0,-321.1c0.1,-17.3 -13.2,-29.9 -30.7,-29.9Zm-234.2,320l-55,0l0,-171l55,0l0,171Zm-25.6,-197l-0.4,0c-17.6,0 -29,-13.1 -29,-29.5c0,-16.7 11.7,-29.5 29.7,-29.5c18,0 29,12.7 29.4,29.5c0,16.4 -11.4,29.5 -29.7,29.5Zm226.6,197l-55,0l0,-93.5c0,-22.4 -8,-37.7 -27.9,-37.7c-15.2,0 -24.2,10.3 -28.2,20.3c-1.5,3.6 -1.9,8.5 -1.9,13.5l0,97.4l-55,0l0,-171l55,0l0,23.8c8,-11.4 20.5,-27.8 49.6,-27.8c36.1,0 63.4,23.8 63.4,75.1l0,99.9Z" style="fill:#ddd;fill-rule:nonzero;"/></svg>